<?xml version="1.0" encoding="utf-8"?>
<!-- Generator: Adobe Illustrator 26.0.1, SVG Export Plug-In . SVG Version: 6.00 Build 0)  -->
<svg version="1.1" id="Layer_1" xmlns="http://www.w3.org/2000/svg" xmlns:xlink="http://www.w3.org/1999/xlink" x="0px" y="0px"
	 viewBox="0 0 109.74 114.61" style="enable-background:new 0 0 109.74 114.61;" xml:space="preserve">
<style type="text/css">
	.st0{fill:#2819FF;}
	.st1{fill:#23C3FF;}
	.st2{fill:#00BE5F;}
	.st3{clip-path:url(#SVGID_00000067927518117117832860000014097186020420358580_);}
	.st4{fill:#9BE5BE;}
	.st5{fill:#FFFFFF;}
</style>
<path id="Path_10" class="st1" d="M54.83,54.97v0.63l0.63-0.63H54.83z"/>
<g id="Group_59">
	<g>
		<defs>
			<rect id="SVGID_1_" x="5.45" y="4.58" width="99" height="101"/>
		</defs>
		<clipPath id="SVGID_00000046297618488582304630000007510838750528045204_">
			<use xlink:href="#SVGID_1_"  style="overflow:visible;"/>
		</clipPath>
		<g id="Group_58" style="clip-path:url(#SVGID_00000046297618488582304630000007510838750528045204_);">
			<path id="Path_11" class="st2" d="M55.4,5.1c12.98,0.12,25.37,5.49,34.32,14.9L55.4,54.3V5.1z"/>
			<path id="Path_12" class="st2" d="M55.92,5.62C68.4,5.87,80.29,11.03,89,19.98L55.92,53.06V5.62z M54.89,4.58v50.45h0.51
				L90.44,20C81.23,10.17,68.36,4.59,54.89,4.58"/>
			<path id="Path_13" class="st1" d="M54.89,55.03h-0.51l0.51,0.51V55.03z"/>
			<path id="Path_14" class="st2" d="M56.64,54.51l33.79-33.77c8.51,9.19,13.28,21.24,13.37,33.77H56.64z"/>
			<path id="Path_15" class="st2" d="M90.42,21.48C98.5,30.4,103.08,41.96,103.28,54h-45.4L90.42,21.48z M90.45,20L55.4,55.02h48.92
				C104.36,42,99.39,29.46,90.45,20"/>
			<path id="Path_16" class="st1" d="M5.96,54.51c0.09-12.53,4.86-24.58,13.38-33.77l33.79,33.77H5.96z"/>
			<path id="Path_17" class="st1" d="M19.36,21.48L51.89,54H6.49C6.7,41.96,11.27,30.4,19.36,21.48 M19.33,20
				C10.38,29.46,5.42,42,5.45,55.02h48.92L19.33,20z"/>
			<path id="Path_18" class="st1" d="M55.4,56.78l33.82,33.81c-8.93,9.08-21.09,14.24-33.82,14.36V56.78z"/>
			<path id="Path_19" class="st1" d="M55.92,58.03l32.58,32.56c-8.67,8.63-20.34,13.59-32.58,13.84V58.03z M54.89,55.54v49.93
				c13.22-0.01,25.87-5.38,35.06-14.89L54.89,55.54z"/>
			<path id="Path_20" class="st4" d="M55.61,55.54h48.19c-0.08,12.79-5.04,25.06-13.87,34.31L55.61,55.54z"/>
			<path id="Path_21" class="st4" d="M103.29,56.06c-0.2,12.29-4.96,24.07-13.36,33.06L56.86,56.06H103.29z M104.32,55.03H55.4
				l-0.51,0.51l35.06,35.04C99.2,81.07,104.36,68.3,104.32,55.03"/>
			<path id="Path_22" class="st1" d="M54.37,104.95c-12.73-0.12-24.89-5.29-33.82-14.36l33.82-33.81V104.95z"/>
			<path id="Path_23" class="st1" d="M53.86,58.03v46.41c-12.24-0.25-23.9-5.21-32.58-13.84L53.86,58.03z M54.89,55.54L19.83,90.59
				c9.19,9.51,21.84,14.88,35.06,14.89V55.54z"/>
			<path id="Path_24" class="st1" d="M20.05,19.99c8.96-9.4,21.34-14.77,34.33-14.9v49.2L20.05,19.99z"/>
			<path id="Path_25" class="st1" d="M53.85,5.62v47.43L20.77,19.98C29.48,11.03,41.37,5.87,53.85,5.62 M54.89,4.58
				C41.41,4.59,28.55,10.17,19.33,20l35.04,35.03h0.51V4.58z"/>
			<path id="Path_26" class="st1" d="M19.83,89.85C11,80.6,6.04,68.33,5.96,55.54h48.2L19.83,89.85z"/>
			<path id="Path_27" class="st1" d="M52.92,56.06L19.84,89.11C11.45,80.13,6.69,68.35,6.49,56.06H52.92z M54.37,55.03H5.45
				C5.41,68.3,10.57,81.07,19.83,90.59l35.06-35.04L54.37,55.03z"/>
			<path id="Path_28" class="st5" d="M81.67,55.03c0.01,14.79-11.98,26.78-26.77,26.79c-14.79,0.01-26.78-11.98-26.79-26.77
				s11.98-26.78,26.77-26.79c0,0,0.01,0,0.01,0C69.67,28.26,81.66,40.24,81.67,55.03"/>
		</g>
	</g>
</g>
</svg>
